<?xml version="1.0" encoding="UTF-8"?>
<svg id="TurnerTech" xmlns="http://www.w3.org/2000/svg" xmlns:xlink="http://www.w3.org/1999/xlink" viewBox="0 0 2369 512">
  <defs>
    <style>
      .cls-1 {
        fill: none;
      }

      .cls-2 {
        fill: url(#Unbenannter_Verlauf_12);
      }
    </style>
    <linearGradient id="Unbenannter_Verlauf_12" data-name="Unbenannter Verlauf 12" x1="25.01" y1="24.87" x2="487.27" y2="487.13" gradientUnits="userSpaceOnUse">
      <stop offset="0" stop-color="#16eefd"/>
      <stop offset="1" stop-color="#007ad4"/>
    </linearGradient>
  </defs>
  <rect class="cls-1" width="512" height="512"/>
  <g>
    <path d="M599.68,140.02c-1.94,0-3.64-.66-5.09-2-1.45-1.33-2.18-2.97-2.18-4.91s.73-3.57,2.18-4.91c1.46-1.33,3.15-2,5.09-2h176.7c1.94,0,3.64,.67,5.09,2,1.45,1.33,2.18,2.97,2.18,4.91,0,2.18-.73,3.88-2.18,5.09-1.46,1.22-3.15,1.82-5.09,1.82h-176.7Zm88.35,240.69c-2.18,0-3.94-.73-5.27-2.18-1.33-1.45-2-3.15-2-5.09V134.93h14.54v238.5c0,1.94-.73,3.64-2.18,5.09-1.46,1.45-3.15,2.18-5.09,2.18Z"/>
    <path d="M919.99,199.28c2.18,0,3.94,.73,5.27,2.18,1.33,1.45,2,3.15,2,5.09v105.8c0,23.51-6.61,41.15-19.81,52.9-13.21,11.76-30.72,17.63-52.54,17.63s-38.96-5.87-52.17-17.63c-13.21-11.75-19.81-29.39-19.81-52.9v-105.8c0-1.94,.73-3.64,2.18-5.09s3.15-2.18,5.09-2.18c2.18,0,3.94,.73,5.27,2.18,1.33,1.45,2,3.15,2,5.09v105.8c0,18.42,5.15,32.48,15.45,42.17,10.3,9.7,24.3,14.54,41.99,14.54s32.05-4.85,42.36-14.54c10.3-9.69,15.45-23.75,15.45-42.17v-105.8c0-1.94,.67-3.64,2-5.09,1.33-1.45,3.09-2.18,5.27-2.18Z"/>
    <path d="M994.88,380.7c-2.18,0-3.94-.73-5.27-2.18-1.33-1.45-2-3.15-2-5.09V206.55c0-1.94,.73-3.64,2.18-5.09s3.15-2.18,5.09-2.18c2.18,0,3.94,.73,5.27,2.18,1.33,1.45,2,3.15,2,5.09v61.44l-6.18,9.45c0-9.45,1.64-19.03,4.91-28.72,3.27-9.69,8.06-18.72,14.36-27.09,6.3-8.36,14-15.15,23.09-20.36,9.09-5.21,19.57-7.82,31.45-7.82,3.39,0,7.03,.49,10.91,1.46,3.87,.97,5.82,3.27,5.82,6.91,0,2.18-.61,4-1.82,5.45-1.22,1.45-2.79,2.18-4.73,2.18-1.45,0-3.21-.55-5.27-1.64-2.06-1.09-5.03-1.64-8.91-1.64-7.76,0-15.39,2.31-22.9,6.91-7.52,4.61-14.36,10.72-20.54,18.36-6.18,7.63-11.09,15.94-14.73,24.9-3.64,8.97-5.45,17.7-5.45,26.18v90.89c0,1.94-.73,3.64-2.18,5.09s-3.15,2.18-5.09,2.18Z"/>
    <path d="M1203.94,193.46c15.27,0,27.69,3.03,37.27,9.09,9.57,6.06,16.6,14.3,21.09,24.72,4.48,10.42,6.73,22.06,6.73,34.9v111.25c0,1.94-.73,3.64-2.18,5.09s-3.15,2.18-5.09,2.18c-2.18,0-3.94-.73-5.27-2.18-1.33-1.45-2-3.15-2-5.09v-109.8c0-10.42-1.76-19.87-5.27-28.36-3.52-8.48-9.09-15.27-16.72-20.36-7.64-5.09-17.63-7.63-30-7.63-10.67,0-21.09,2.54-31.27,7.63s-18.6,11.88-25.27,20.36c-6.67,8.49-10,17.94-10,28.36v109.8c0,1.94-.73,3.64-2.18,5.09s-3.15,2.18-5.09,2.18c-2.18,0-3.94-.73-5.27-2.18-1.33-1.45-2-3.15-2-5.09V206.55c0-1.94,.73-3.64,2.18-5.09s3.15-2.18,5.09-2.18c2.18,0,3.94,.73,5.27,2.18,1.33,1.45,2,3.15,2,5.09v35.63l-9.09,17.45c0-8.73,2.3-17.09,6.91-25.09,4.6-8,10.66-15.09,18.18-21.27,7.51-6.18,15.82-11.03,24.91-14.54,9.09-3.51,18.12-5.27,27.09-5.27Z"/>
    <path d="M1411.17,384.34c-18.18,0-34.24-3.87-48.17-11.63-13.94-7.75-24.91-18.72-32.9-32.9-8-14.18-12-30.84-12-49.99,0-20.36,3.94-37.69,11.82-51.99,7.87-14.3,18.05-25.27,30.54-32.9,12.48-7.63,25.75-11.45,39.81-11.45,10.18,0,20.12,1.64,29.81,4.91,9.69,3.27,18.36,8.36,26,15.27,7.63,6.91,13.82,15.51,18.54,25.81,4.73,10.31,7.33,22.6,7.82,36.9,0,1.94-.73,3.7-2.18,5.27-1.46,1.58-3.15,2.36-5.09,2.36h-148.34l-2.18-13.82h146.52l-3.64,3.27v-6.54c-1.22-12.84-5.27-23.63-12.18-32.36s-15.21-15.33-24.91-19.81c-9.7-4.48-19.76-6.73-30.18-6.73-7.27,0-14.91,1.64-22.9,4.91-8,3.27-15.4,8.24-22.18,14.91-6.79,6.67-12.3,15.09-16.54,25.27-4.24,10.18-6.36,22.06-6.36,35.63,0,14.79,2.97,28.36,8.91,40.72,5.94,12.36,14.78,22.3,26.54,29.81,11.75,7.52,26.23,11.27,43.45,11.27,8.24,0,16-1.39,23.27-4.18,7.27-2.78,13.82-6.48,19.63-11.09,5.82-4.6,10.54-9.57,14.18-14.91,1.94-2.18,4-3.27,6.18-3.27,1.69,0,3.15,.67,4.36,2,1.21,1.33,1.82,2.85,1.82,4.54s-.49,3.15-1.45,4.36c-7.52,9.7-17.15,18.18-28.9,25.45-11.76,7.27-24.79,10.91-39.08,10.91Z"/>
    <path d="M1538.78,380.7c-2.18,0-3.94-.73-5.27-2.18-1.33-1.45-2-3.15-2-5.09V206.55c0-1.94,.73-3.64,2.18-5.09s3.15-2.18,5.09-2.18c2.18,0,3.94,.73,5.27,2.18,1.33,1.45,2,3.15,2,5.09v61.44l-6.18,9.45c0-9.45,1.64-19.03,4.91-28.72,3.27-9.69,8.06-18.72,14.36-27.09,6.3-8.36,14-15.15,23.09-20.36,9.09-5.21,19.57-7.82,31.45-7.82,3.39,0,7.03,.49,10.91,1.46,3.87,.97,5.82,3.27,5.82,6.91,0,2.18-.61,4-1.82,5.45-1.22,1.45-2.79,2.18-4.73,2.18-1.45,0-3.21-.55-5.27-1.64-2.06-1.09-5.03-1.64-8.91-1.64-7.76,0-15.39,2.31-22.9,6.91-7.52,4.61-14.36,10.72-20.54,18.36-6.18,7.63-11.09,15.94-14.73,24.9-3.64,8.97-5.45,17.7-5.45,26.18v90.89c0,1.94-.73,3.64-2.18,5.09s-3.15,2.18-5.09,2.18Z"/>
    <path d="M1651.49,140.02c-1.94,0-3.64-.66-5.09-2-1.45-1.33-2.18-2.97-2.18-4.91s.73-3.57,2.18-4.91c1.46-1.33,3.15-2,5.09-2h176.7c1.94,0,3.64,.67,5.09,2,1.45,1.33,2.18,2.97,2.18,4.91,0,2.18-.73,3.88-2.18,5.09-1.46,1.22-3.15,1.82-5.09,1.82h-176.7Zm88.35,240.69c-2.18,0-3.94-.73-5.27-2.18-1.33-1.45-2-3.15-2-5.09V134.93h14.54v238.5c0,1.94-.73,3.64-2.18,5.09-1.46,1.45-3.15,2.18-5.09,2.18Z"/>
    <path d="M1916.54,384.34c-18.18,0-34.24-3.87-48.17-11.63-13.94-7.75-24.91-18.72-32.9-32.9-8-14.18-12-30.84-12-49.99,0-20.36,3.94-37.69,11.82-51.99,7.87-14.3,18.05-25.27,30.54-32.9,12.48-7.63,25.75-11.45,39.81-11.45,10.18,0,20.12,1.64,29.81,4.91,9.69,3.27,18.36,8.36,26,15.27,7.63,6.91,13.82,15.51,18.54,25.81,4.73,10.31,7.33,22.6,7.82,36.9,0,1.94-.73,3.7-2.18,5.27-1.46,1.58-3.15,2.36-5.09,2.36h-148.34l-2.18-13.82h146.52l-3.64,3.27v-6.54c-1.22-12.84-5.27-23.63-12.18-32.36s-15.21-15.33-24.91-19.81c-9.7-4.48-19.76-6.73-30.18-6.73-7.27,0-14.91,1.64-22.9,4.91-8,3.27-15.4,8.24-22.18,14.91-6.79,6.67-12.3,15.09-16.54,25.27-4.24,10.18-6.36,22.06-6.36,35.63,0,14.79,2.97,28.36,8.91,40.72,5.94,12.36,14.78,22.3,26.54,29.81,11.75,7.52,26.23,11.27,43.45,11.27,8.24,0,16-1.39,23.27-4.18,7.27-2.78,13.82-6.48,19.63-11.09,5.82-4.6,10.54-9.57,14.18-14.91,1.94-2.18,4-3.27,6.18-3.27,1.69,0,3.15,.67,4.36,2,1.21,1.33,1.82,2.85,1.82,4.54s-.49,3.15-1.45,4.36c-7.52,9.7-17.15,18.18-28.9,25.45-11.76,7.27-24.79,10.91-39.08,10.91Z"/>
    <path d="M2117.23,193.46c10.91,0,21.14,1.22,30.72,3.64,9.57,2.43,17.33,5.64,23.27,9.63,5.94,4,8.91,8.18,8.91,12.54,0,1.7-.67,3.33-2,4.91-1.33,1.58-2.97,2.36-4.91,2.36-2.67,0-4.79-.73-6.36-2.18-1.58-1.45-3.21-3.21-4.91-5.27-1.7-2.06-4.36-3.94-8-5.64-3.4-1.69-8.18-3.15-14.36-4.36-6.18-1.21-13.76-1.82-22.72-1.82-14.06,0-26.9,3.64-38.54,10.91-11.63,7.27-20.91,17.03-27.81,29.27-6.91,12.24-10.36,26-10.36,41.27s3.21,29.45,9.63,41.81c6.42,12.36,15.39,22.12,26.9,29.27,11.51,7.15,24.9,10.73,40.17,10.73,10.91,0,19.21-1.03,24.91-3.09,5.69-2.06,10.6-4.3,14.72-6.73,5.09-2.91,8.6-5.69,10.54-8.36,1.94-2.67,4.24-4,6.91-4,1.94,0,3.45,.61,4.54,1.82,1.09,1.22,1.64,2.79,1.64,4.73,0,2.91-2.67,6.73-8,11.45-5.33,4.73-12.79,8.91-22.36,12.54-9.58,3.64-20.91,5.45-33.99,5.45-17.7,0-33.33-4.18-46.9-12.54-13.58-8.36-24.18-19.75-31.81-34.18-7.63-14.42-11.45-30.72-11.45-48.9,0-16.96,3.82-32.66,11.45-47.08,7.63-14.42,18.3-26.05,31.99-34.9,13.69-8.84,29.75-13.27,48.17-13.27Z"/>
    <path d="M2304.11,197.1c14.54,0,26.6,3.15,36.18,9.45,9.57,6.31,16.72,14.79,21.45,25.45,4.73,10.67,7.09,22.42,7.09,35.27v106.16c0,1.94-.73,3.64-2.18,5.09s-3.15,2.18-5.09,2.18c-2.18,0-3.94-.73-5.27-2.18-1.33-1.45-2-3.15-2-5.09v-106.16c0-10.42-1.7-19.87-5.09-28.36-3.4-8.48-8.73-15.27-16-20.36s-16.97-7.63-29.09-7.63c-10.42,0-20.6,2.54-30.54,7.63-9.94,5.09-18.12,11.88-24.54,20.36-6.42,8.49-9.63,17.94-9.63,28.36v106.16c0,1.94-.73,3.64-2.18,5.09s-3.15,2.18-5.09,2.18c-2.18,0-3.94-.73-5.27-2.18-1.33-1.45-2-3.15-2-5.09V118.93c0-1.94,.73-3.64,2.18-5.09,1.45-1.46,3.15-2.18,5.09-2.18,2.18,0,3.94,.73,5.27,2.18,1.33,1.45,2,3.15,2,5.09v126.89l-9.09,17.45c0-8.73,2.18-17.09,6.54-25.09,4.36-8,10.12-15.09,17.27-21.27,7.15-6.18,15.09-11.03,23.81-14.54,8.73-3.51,17.45-5.27,26.18-5.27Z"/>
  </g>
  <path class="cls-2" d="M500.56,419.38c-7.59-6.94-17.03-10.41-28.32-10.41h-102.2V67.87c0-9.02-2.61-16.8-7.6-23.46-.46-.66-1.08-1.24-1.59-1.87-.85-.99-1.57-2.04-2.53-2.98-.12-.12-.26-.19-.38-.3-.22-.21-.37-.47-.6-.67-1.47-1.34-3.07-2.44-4.67-3.52-.25-.17-.47-.38-.72-.54-6.54-4.19-14.16-6.35-22.92-6.35h-.61s-.03,0-.04,0-.03,0-.04,0H40.02c-11.29,0-20.73,3.37-28.32,10.09C4.11,44.99,.32,53.99,.32,65.28s3.8,20.4,11.39,27.34c7.59,6.94,17.03,10.41,28.32,10.41h102.2V444.13c0,9.02,2.61,16.8,7.6,23.46,.46,.67,1.08,1.25,1.6,1.88,.84,.99,1.56,2.04,2.52,2.97,.12,.12,.26,.19,.38,.3,.22,.21,.37,.47,.6,.67,1.47,1.34,3.07,2.44,4.67,3.52,.25,.17,.47,.38,.72,.54,6.54,4.19,14.16,6.35,22.92,6.35h.61s.03,0,.04,0,.03,0,.04,0H472.25c11.29,0,20.73-3.37,28.32-10.09,7.6-6.73,11.39-15.73,11.39-27.02s-3.8-20.4-11.39-27.34ZM285.43,103.03V408.97h-58.59V103.03h58.59Z"/>
  <rect class="cls-1" width="2369" height="512"/>
</svg>