<?xml version="1.0" encoding="UTF-8"?>
<svg id="TurnerTech" xmlns="http://www.w3.org/2000/svg" xmlns:xlink="http://www.w3.org/1999/xlink" viewBox="0 0 512 512">
  <defs>
    <style>
      .cls-1 {
        fill: none;
      }

      .cls-2 {
        fill: url(#Unbenannter_Verlauf_12);
      }
    </style>
    <linearGradient id="Unbenannter_Verlauf_12" data-name="Unbenannter Verlauf 12" x1="25.01" y1="24.87" x2="487.27" y2="487.13" gradientUnits="userSpaceOnUse">
      <stop offset="0" stop-color="#16eefd"/>
      <stop offset="1" stop-color="#007ad4"/>
    </linearGradient>
  </defs>
  <rect class="cls-1" width="512" height="512"/>
  <path class="cls-2" d="M500.56,419.38c-7.59-6.94-17.03-10.41-28.32-10.41h-102.2V67.87c0-9.02-2.61-16.8-7.6-23.46-.46-.66-1.08-1.24-1.59-1.87-.85-.99-1.57-2.04-2.53-2.98-.12-.12-.26-.19-.38-.3-.22-.21-.37-.47-.6-.67-1.47-1.34-3.07-2.44-4.67-3.52-.25-.17-.47-.38-.72-.54-6.54-4.19-14.16-6.35-22.92-6.35h-.61s-.03,0-.04,0-.03,0-.04,0H40.02c-11.29,0-20.73,3.37-28.32,10.09C4.11,44.99,.32,53.99,.32,65.28s3.8,20.4,11.39,27.34c7.59,6.94,17.03,10.41,28.32,10.41h102.2V444.13c0,9.02,2.61,16.8,7.6,23.46,.46,.67,1.08,1.25,1.6,1.88,.84,.99,1.56,2.04,2.52,2.97,.12,.12,.26,.19,.38,.3,.22,.21,.37,.47,.6,.67,1.47,1.34,3.07,2.44,4.67,3.52,.25,.17,.47,.38,.72,.54,6.54,4.19,14.16,6.35,22.92,6.35h.61s.03,0,.04,0,.03,0,.04,0H472.25c11.29,0,20.73-3.37,28.32-10.09,7.6-6.73,11.39-15.73,11.39-27.02s-3.8-20.4-11.39-27.34ZM285.43,103.03V408.97h-58.59V103.03h58.59Z"/>
</svg>